Coordinates
nRows=308
nColumns=2
inDegrees=yes
endheader
time	ankle_angle_r	
2.72765	 -4.211725	
2.76091	 -4.228190	
2.79418	 -4.239286	
2.82744	 -4.248225	
2.8607	 -4.258093	
2.89397	 -4.271863	
2.92723	 -4.294062	
2.9605	 -4.318856	
2.99376	 -4.335815	
3.02702	 -4.344364	
3.06029	 -4.345420	
3.09355	 -4.337664	
3.12682	 -4.323003	
3.16008	 -4.302204	
3.19334	 -4.282471	
3.22661	 -4.282077	
3.25987	 -4.304593	
3.29314	 -4.332082	
3.3264	 -4.347674	
3.35966	 -4.341704	
3.39293	 -4.315853	
3.42619	 -4.286786	
3.45946	 -4.268395	
3.49272	 -4.262952	
3.52598	 -4.265822	
3.55925	 -4.268725	
3.59251	 -4.269402	
3.62578	 -4.271824	
3.65904	 -4.275833	
3.6923	 -4.279492	
3.72557	 -4.281857	
3.75883	 -4.280919	
3.7921	 -4.279068	
3.82536	 -4.279620	
3.85862	 -4.281030	
3.89189	 -4.284867	
3.92515	 -4.292311	
3.95842	 -4.297062	
3.99168	 -4.296786	
4.02494	 -4.295006	
4.05821	 -4.292623	
4.09147	 -4.291570	
4.12474	 -4.294026	
4.158	 -4.297781	
4.19126	 -4.303226	
4.22453	 -4.313140	
4.25779	 -4.326331	
4.29106	 -4.342563	
4.32432	 -4.358423	
4.35758	 -4.362393	
4.39085	 -4.353782	
4.42411	 -4.346083	
4.45738	 -4.348592	
4.49064	 -4.363666	
4.5239	 -4.385392	
4.55717	 -4.401569	
4.59043	 -4.409902	
4.6237	 -4.413794	
4.65696	 -4.410863	
4.69022	 -4.402359	
4.72349	 -4.393798	
4.75675	 -4.387375	
4.79002	 -4.381694	
4.82328	 -4.372482	
4.85654	 -4.363572	
4.88981	 -4.366370	
4.92307	 -4.377518	
4.95634	 -4.380155	
4.9896	 -4.367039	
5.02286	 -4.348219	
5.05613	 -4.341097	
5.08939	 -4.351522	
5.12266	 -4.365247	
5.15592	 -4.368588	
5.18918	 -4.364874	
5.22245	 -4.360337	
5.25571	 -4.355913	
5.28898	 -4.352224	
5.32224	 -4.347009	
5.3555	 -4.339780	
5.38877	 -4.334452	
5.42203	 -4.329470	
5.4553	 -4.322999	
5.48856	 -4.320837	
5.52182	 -4.325346	
5.55509	 -4.332442	
5.58835	 -4.339857	
5.62162	 -4.345230	
5.65488	 -4.349862	
5.68814	 -4.362814	
5.72141	 -4.381667	
5.75467	 -4.388996	
5.78794	 -4.378863	
5.8212	 -4.363584	
5.85446	 -4.358716	
5.88773	 -4.370652	
5.92099	 -4.390137	
5.95426	 -4.403460	
5.98752	 -4.407348	
6.02078	 -4.405520	
6.05405	 -4.402549	
6.08731	 -4.401596	
6.12058	 -4.403590	
6.15384	 -4.406477	
6.1871	 -4.400626	
6.22037	 -4.379543	
6.25363	 -4.354424	
6.2869	 -4.339263	
6.32016	 -4.334068	
6.35342	 -4.332329	
6.38669	 -4.326909	
6.41995	 -4.312430	
6.45322	 -4.295199	
6.48648	 -4.285384	
6.51974	 -4.282884	
6.55301	 -4.287010	
6.58627	 -4.297980	
6.61954	 -4.307099	
6.6528	 -4.309043	
6.68606	 -4.306794	
6.71933	 -4.300034	
6.75259	 -4.292055	
6.78586	 -4.290309	
6.81912	 -4.291853	
6.85238	 -4.291545	
6.88565	 -4.289792	
6.91891	 -4.283565	
6.95218	 -4.273148	
6.98544	 -4.267301	
7.0187	 -4.268503	
7.05197	 -4.269640	
7.08523	 -4.265407	
7.1185	 -4.257783	
7.15176	 -4.252062	
7.18502	 -4.249563	
7.21829	 -4.249621	
7.25155	 -4.254118	
7.28482	 -4.262834	
7.31808	 -4.275583	
7.35134	 -4.293677	
7.38461	 -4.310679	
7.41787	 -4.319126	
7.45114	 -4.319812	
7.4844	 -4.315264	
7.51766	 -4.311203	
7.55093	 -4.313139	
7.58419	 -4.316254	
7.61746	 -4.318367	
7.65072	 -4.322798	
7.68398	 -4.323175	
7.71725	 -4.319753	
7.75051	 -4.329288	
7.78378	 -4.351169	
7.81704	 -4.361802	
7.8503	 -4.350361	
7.88357	 -4.327215	
7.91683	 -4.309530	
7.9501	 -4.312522	
7.98336	 -4.335064	
8.01662	 -4.358851	
8.04989	 -4.371230	
8.08315	 -4.373883	
8.11642	 -4.373879	
8.14968	 -4.378357	
8.18294	 -4.390346	
8.21621	 -4.406801	
8.24947	 -4.420176	
8.28274	 -4.424065	
8.316	 -4.421342	
8.34926	 -4.415645	
8.38253	 -4.405186	
8.41579	 -4.396352	
8.44906	 -4.393965	
8.48232	 -4.385624	
8.51558	 -4.364593	
8.54885	 -4.340915	
8.58211	 -4.322768	
8.61538	 -4.312717	
8.64864	 -4.308758	
8.6819	 -4.303689	
8.71517	 -4.297207	
8.74843	 -4.293583	
8.7817	 -4.290300	
8.81496	 -4.287397	
8.84822	 -4.289633	
8.88149	 -4.295121	
8.91475	 -4.300890	
8.94802	 -4.307160	
8.98128	 -4.309464	
9.01454	 -4.304395	
9.04781	 -4.296275	
9.08107	 -4.289598	
9.11434	 -4.286224	
9.1476	 -4.285417	
9.18086	 -4.283728	
9.21413	 -4.282098	
9.24739	 -4.283230	
9.28066	 -4.284406	
9.31392	 -4.283953	
9.34718	 -4.282225	
9.38045	 -4.277465	
9.41371	 -4.271508	
9.44698	 -4.269818	
9.48024	 -4.275970	
9.5135	 -4.288442	
9.54677	 -4.298096	
9.58003	 -4.299942	
9.6133	 -4.303049	
9.64656	 -4.312705	
9.67982	 -4.321220	
9.71309	 -4.326087	
9.74635	 -4.335155	
9.77962	 -4.354082	
9.81288	 -4.377988	
9.84614	 -4.391011	
9.87941	 -4.381948	
9.91267	 -4.359846	
9.94594	 -4.342954	
9.9792	 -4.342865	
10.0125	 -4.359382	
10.0457	 -4.377766	
10.079	 -4.383090	
10.1123	 -4.377865	
10.1455	 -4.371507	
10.1788	 -4.365913	
10.212	 -4.359531	
10.2453	 -4.352981	
10.2786	 -4.348083	
10.3118	 -4.344679	
10.3451	 -4.340966	
10.3784	 -4.338856	
10.4116	 -4.340760	
10.4449	 -4.344934	
10.4782	 -4.356028	
10.5114	 -4.380800	
10.5447	 -4.408001	
10.578	 -4.421999	
10.6112	 -4.425162	
10.6445	 -4.422723	
10.6777	 -4.410487	
10.711	 -4.386658	
10.7443	 -4.356076	
10.7775	 -4.327849	
10.8108	 -4.309690	
10.8441	 -4.301143	
10.8773	 -4.300104	
10.9106	 -4.304454	
10.9439	 -4.307784	
10.9771	 -4.306720	
11.0104	 -4.301342	
11.0436	 -4.292246	
11.0769	 -4.287149	
11.1102	 -4.292480	
11.1434	 -4.301137	
11.1767	 -4.304895	
11.21	 -4.303921	
11.2432	 -4.300626	
11.2765	 -4.299298	
11.3098	 -4.301836	
11.343	 -4.302252	
11.3763	 -4.298087	
11.4096	 -4.293231	
11.4428	 -4.287749	
11.4761	 -4.282541	
11.5093	 -4.281295	
11.5426	 -4.282134	
11.5759	 -4.284161	
11.6091	 -4.291416	
11.6424	 -4.303345	
11.6757	 -4.314319	
11.7089	 -4.318886	
11.7422	 -4.318414	
11.7755	 -4.320313	
11.8087	 -4.323711	
11.842	 -4.323216	
11.8752	 -4.321524	
11.9085	 -4.321952	
11.9418	 -4.325442	
11.975	 -4.333695	
12.0083	 -4.343757	
12.0416	 -4.352434	
12.0748	 -4.361060	
12.1081	 -4.368172	
12.1414	 -4.372144	
12.1746	 -4.374837	
12.2079	 -4.373756	
12.2412	 -4.365842	
12.2744	 -4.354699	
12.3077	 -4.343589	
12.3409	 -4.336918	
12.3742	 -4.343806	
12.4075	 -4.363155	
12.4407	 -4.381137	
12.474	 -4.387915	
12.5073	 -4.382686	
12.5405	 -4.372632	
12.5738	 -4.369437	
12.6071	 -4.373138	
12.6403	 -4.372630	
12.6736	 -4.365413	
12.7068	 -4.355826	
12.7401	 -4.347866	
12.7734	 -4.349698	
12.8066	 -4.361550	
12.8399	 -4.369546	
12.8732	 -4.363786	
12.9064	 -4.341099	
12.9397	 -4.303067	
